<mxfile host="app.diagrams.net" modified="2022-09-22T10:58:12.421Z" agent="5.0 (Windows NT 10.0; Win64; x64) AppleWebKit/537.36 (KHTML, like Gecko) Chrome/105.0.0.0 Safari/537.36 Edg/105.0.1343.42" etag="Zeb0qZsA4auWbCAenaze" version="20.3.5" type="github">
  <diagram id="kgpKYQtTHZ0yAKxKKP6v" name="Page-1">
    <mxGraphModel dx="1267" dy="794" grid="0" gridSize="10" guides="1" tooltips="1" connect="1" arrows="1" fold="1" page="0" pageScale="1" pageWidth="850" pageHeight="1100" math="0" shadow="0">
      <root>
        <mxCell id="0" />
        <mxCell id="1" parent="0" />
        <mxCell id="nMerQrcCCNYYEF-IDmSo-5" style="edgeStyle=orthogonalEdgeStyle;rounded=1;orthogonalLoop=1;jettySize=auto;html=1;fontSize=17;fillColor=#d5e8d4;strokeColor=#82b366;endSize=5;startSize=11;strokeWidth=3;" edge="1" parent="1" source="3nuBFxr9cyL0pnOWT2aG-1" target="nMerQrcCCNYYEF-IDmSo-3">
          <mxGeometry relative="1" as="geometry">
            <Array as="points">
              <mxPoint x="448" y="264" />
              <mxPoint x="448" y="264" />
            </Array>
          </mxGeometry>
        </mxCell>
        <mxCell id="3nuBFxr9cyL0pnOWT2aG-1" value="请求 A" style="shape=umlLifeline;perimeter=lifelinePerimeter;container=1;collapsible=0;recursiveResize=0;rounded=1;shadow=0;strokeWidth=1;fillColor=#f8cecc;strokeColor=#b85450;sketch=1;fontSize=17;" parent="1" vertex="1">
          <mxGeometry x="88" y="194" width="100" height="240" as="geometry" />
        </mxCell>
        <mxCell id="nMerQrcCCNYYEF-IDmSo-1" value="请求 B" style="shape=umlLifeline;perimeter=lifelinePerimeter;container=1;collapsible=0;recursiveResize=0;rounded=1;shadow=0;strokeWidth=1;fillColor=#f8cecc;strokeColor=#b85450;sketch=1;fontSize=17;" vertex="1" parent="1">
          <mxGeometry x="278" y="194" width="100" height="240" as="geometry" />
        </mxCell>
        <mxCell id="nMerQrcCCNYYEF-IDmSo-2" value="缓存" style="shape=umlLifeline;perimeter=lifelinePerimeter;container=1;collapsible=0;recursiveResize=0;rounded=1;shadow=0;strokeWidth=1;fillColor=#f8cecc;strokeColor=#b85450;sketch=1;fontSize=17;" vertex="1" parent="1">
          <mxGeometry x="463" y="194" width="100" height="240" as="geometry" />
        </mxCell>
        <mxCell id="nMerQrcCCNYYEF-IDmSo-3" value="数据库" style="shape=umlLifeline;perimeter=lifelinePerimeter;container=1;collapsible=0;recursiveResize=0;rounded=1;shadow=0;strokeWidth=1;fillColor=#f8cecc;strokeColor=#b85450;sketch=1;fontSize=17;" vertex="1" parent="1">
          <mxGeometry x="628" y="194" width="100" height="240" as="geometry" />
        </mxCell>
        <mxCell id="nMerQrcCCNYYEF-IDmSo-8" style="edgeStyle=orthogonalEdgeStyle;rounded=1;orthogonalLoop=1;jettySize=auto;html=1;fontSize=17;fillColor=#d5e8d4;strokeColor=#82b366;endSize=5;startSize=11;strokeWidth=3;" edge="1" parent="nMerQrcCCNYYEF-IDmSo-3">
          <mxGeometry relative="1" as="geometry">
            <mxPoint x="-490" y="199.5" as="sourcePoint" />
            <mxPoint x="-110" y="200" as="targetPoint" />
            <Array as="points">
              <mxPoint x="-179.5" y="199.5" />
              <mxPoint x="-179.5" y="199.5" />
            </Array>
          </mxGeometry>
        </mxCell>
        <mxCell id="nMerQrcCCNYYEF-IDmSo-7" value="删除数据库中的数据 X" style="text;html=1;resizable=0;autosize=1;align=center;verticalAlign=middle;points=[];fillColor=none;strokeColor=none;rounded=0;sketch=1;fontSize=19;strokeWidth=3;" vertex="1" parent="1">
          <mxGeometry x="678" y="249" width="210" height="40" as="geometry" />
        </mxCell>
        <mxCell id="nMerQrcCCNYYEF-IDmSo-9" value="删除缓存中的数据 X" style="text;html=1;resizable=0;autosize=1;align=center;verticalAlign=middle;points=[];fillColor=none;strokeColor=none;rounded=0;sketch=1;fontSize=17;strokeWidth=3;" vertex="1" parent="1">
          <mxGeometry x="518" y="379" width="180" height="30" as="geometry" />
        </mxCell>
        <mxCell id="nMerQrcCCNYYEF-IDmSo-11" style="edgeStyle=orthogonalEdgeStyle;rounded=1;orthogonalLoop=1;jettySize=auto;html=1;fontSize=17;fillColor=#d5e8d4;strokeColor=#82b366;endSize=5;startSize=11;strokeWidth=3;" edge="1" parent="1">
          <mxGeometry relative="1" as="geometry">
            <mxPoint x="328" y="334" as="sourcePoint" />
            <mxPoint x="518" y="334" as="targetPoint" />
            <Array as="points">
              <mxPoint x="468.5" y="334" />
              <mxPoint x="468.5" y="334" />
            </Array>
          </mxGeometry>
        </mxCell>
        <mxCell id="nMerQrcCCNYYEF-IDmSo-12" value="读取缓存中的数据 X" style="text;html=1;resizable=0;autosize=1;align=center;verticalAlign=middle;points=[];fillColor=none;strokeColor=none;rounded=0;sketch=1;fontSize=17;strokeWidth=3;" vertex="1" parent="1">
          <mxGeometry x="518" y="324" width="180" height="30" as="geometry" />
        </mxCell>
      </root>
    </mxGraphModel>
  </diagram>
</mxfile>
